<svg xmlns="http://www.w3.org/2000/svg" version="1.1" xmlns:xlink="http://www.w3.org/1999/xlink" xmlns:svgjs="http://svgjs.dev/svgjs" viewBox="0 0 1920 1080"><rect width="1920" height="1080" fill="#3c1f3d"></rect><g transform="matrix(7.04171909509728e-17,1.15,-1.15,7.04171909509728e-17,1516.2898712158203,-489.5833518981933)"><path d="M0,-1080C16.135941999978304,-979.9286358163573,111.16463851917354,-661.4903996827005,96.81565199986983,-479.5718148981441C82.46666548056612,-297.6532301135877,-79.0649925021623,-146.78743771593938,-86.09391911582225,11.51150870733818C-93.1228457294822,169.81045513061574,53.21571959986912,286.18541266096724,54.64209231791011,470.22186364152117C56.06846503595111,654.2583146220751,-47.3533579907111,932.6861782186976,-77.53568280757628,1115.7302145906615C-107.71800762444146,1298.7742509626255,-139.37447038454363,1394.4411176384149,-126.45185658328091,1568.4860818733046C-113.5292427820182,1742.5310461081942,-21.07530943054682,2061.414346978884,0,2160L 1920 2160 L 1920 -1080 Z" fill="url(&quot;#SvgjsLinearGradient1531&quot;)"></path><path d="M160,-1080C151.95290165993413,-1013.973054764256,100.24104220522092,-828.0219347693521,111.71740995960474,-683.8383285855357C123.19377771398855,-539.6547224017193,233.83141909789111,-377.6506310279558,228.85820652630287,-214.8983628971016C223.88499395471462,-52.14609476624739,113.53706719636251,131.91485287053888,81.87813453007533,292.6752801995897C50.21920186378814,453.4357075286405,33.30288254009307,601.9003300833866,38.904610528579724,749.6642010772032C44.506338517066375,897.4280720710198,78.59707524900134,1016.8839038329365,115.48850246099522,1179.258506162489C152.3799296729891,1341.6331084920416,252.83459087737563,1560.4548994149332,260.2531738005431,1723.9118150545182C267.6717567237106,1887.3687306941033,176.70886230009052,2087.3186358424196,160,2160L 1920 2160 L 1920 -1080 Z" fill="url(&quot;#SvgjsLinearGradient1532&quot;)"></path><path d="M320,-1080C300.1230109459743,-998.6963034060707,214.29943869050885,-780.5199359405813,200.7380656758457,-592.1778204364243C187.17669266118253,-403.8357049322674,228.42668422959738,-148.4110883181861,238.63176191202098,50.05269302494173C248.83683959444457,248.51647436806957,260.97781815490185,438.236998301555,261.96853177038724,598.6048676223427C262.95924538587263,758.9727369431304,238.94022723464275,827.3137052731552,244.57604360493337,1012.2599089496678C250.211859975224,1197.2061126261804,283.2127705929533,1516.9920745063628,295.78342999213106,1708.282089681418C308.35408939130883,1899.5721048564733,315.9639049986885,2084.71368161357,320,2160L 1920 2160 L 1920 -1080 Z" fill="url(&quot;#SvgjsLinearGradient1533&quot;)"></path><path d="M480,-1080C484.76219367834926,-975.4504992177873,495.2445105594243,-651.2067335450033,508.57316207009575,-452.70299530672395C521.9018135807671,-254.19925706844452,561.1990598647044,-43.579926624746605,559.9719090640285,111.02242942967655C558.7447582633527,265.6247854840997,509.0302517421056,307.95531888075516,501.2102572660402,474.9111410198151C493.39026278997477,641.866963158875,524.221871111964,941.2123502266048,513.051942207636,1112.7573622640361C501.88201330330793,1284.3023743014676,439.6993408746779,1329.6407736217427,434.19068384007187,1504.1812132444034C428.68202680546585,1678.721652867064,472.36511397334533,2050.696868874067,480,2160L 1920 2160 L 1920 -1080 Z" fill="url(&quot;#SvgjsLinearGradient1534&quot;)"></path><path d="M640,-1080C639.2405034074766,-992.1503738501198,626.6195555625691,-756.1084987121604,635.4430204448596,-552.9022431007184C644.2664853271501,-349.69598748927626,709.5479178512239,-100.58751618225222,692.9407892937433,139.23753366865242C676.3336607362626,379.06258351955705,538.6011251354971,638.6780692217174,535.8002490999759,886.0480560047095C532.9993730644546,1133.4180427877016,658.7689079306119,1411.1321303673901,676.1355330806159,1623.4574543666051C693.5021582306199,1835.7827783658201,646.0225888467693,2070.5762423944343,640,2160L 1920 2160 L 1920 -1080 Z" fill="url(&quot;#SvgjsLinearGradient1535&quot;)"></path><path d="M800,-1080C806.2308206878135,-995.5351530104006,833.5462725985938,-746.6459487785196,837.3849241268816,-573.2109180624032C841.2235756551695,-399.7758873462867,848.1237506764969,-166.15750529131236,823.0319091697269,-39.389815703301565C797.9400676629568,87.37787388470923,687.0269800621298,63.70371877823668,686.8338750862616,187.39521946566163C686.6407701103934,311.08672015308656,820.7767811297912,548.3414439913574,821.8732793145175,702.7591884212482C822.9697774992438,857.1769328511389,706.2844272224802,948.1751985820675,693.4128641946196,1113.9016860450058C680.541301166759,1279.6281735079442,726.8793785131237,1522.7683942063788,744.6439011473537,1697.1181131988778C762.4084237815838,1871.4678321913768,790.773983524559,2082.8530188664795,800,2160L 1920 2160 L 1920 -1080 Z" fill="url(&quot;#SvgjsLinearGradient1536&quot;)"></path><path d="M960,-1080C973.8268896478984,-976.772936210084,1022.1400341764798,-650.6853496130962,1042.96133788739,-460.63761726050416C1063.7826415983002,-270.58988490791216,1117.0291802757981,-113.71170597734087,1084.9278222654611,60.28639411555207C1052.8264642551242,234.284494208445,858.067888172864,397.52693154344377,850.3531898253677,583.3509832968534C842.6384914778715,769.1750350502631,1013.9419576660624,1012.8027708822817,1038.6396321804839,1175.23070463601C1063.3373066949052,1337.6586383897381,1011.6458422753103,1393.7903699252242,998.5392369118963,1557.9185858192225C985.4326315484823,1722.0468017132207,966.4232061519828,2059.653097636537,960,2160L 1920 2160 L 1920 -1080 Z" fill="url(&quot;#SvgjsLinearGradient1537&quot;)"></path><path d="M1120,-1080C1141.2383078339085,-987.7639768331342,1239.0827311675334,-705.648366359566,1247.4298470034507,-526.5838609988048C1255.776962839368,-347.5193556380435,1179.84734435462,-172.02812631402276,1170.0826950155038,-5.612967835432812C1160.3180456763876,160.80219064315713,1178.7554451411952,289.70478384326384,1188.8419509687542,471.9070898727349C1198.9284567963132,654.109395902206,1224.94617419338,894.8511766194732,1230.6017299808584,1087.6008683413934C1236.2572857683367,1280.3505600633137,1241.2089073571,1449.6720515944883,1222.7752856936236,1628.405240204256C1204.341664030147,1807.1384288140237,1137.1292142822706,2071.400873367376,1120,2160L 1920 2160 L 1920 -1080 Z" fill="url(&quot;#SvgjsLinearGradient1538&quot;)"></path><path d="M1280,-1080C1290.5183433041468,-1008.7108305040191,1360.8741540466958,-812.6945364572507,1343.1100598248804,-652.2649830241147C1325.345965603065,-491.8354295909787,1178.6790061407437,-298.48630505109537,1173.415434669108,-117.4226794011841C1168.1518631974723,63.640946248727175,1305.5835860700688,274.1047123556084,1311.5286309950654,434.1167708753529C1317.473675920062,594.1288293950975,1203.0852715793023,696.6894526677709,1209.085704219088,842.6496717172829C1215.0861368588737,988.6098907667949,1337.0647445749814,1152.954922737937,1347.53122683378,1309.8780851724255C1357.9977090925786,1466.8012476069139,1283.1398022441763,1642.501660519617,1271.8845977718795,1784.1886463242126C1260.6293932995827,1925.8756321288083,1278.64743296198,2097.364774387369,1280,2160L 1920 2160 L 1920 -1080 Z" fill="url(&quot;#SvgjsLinearGradient1539&quot;)"></path><path d="M1440,-1080C1444.040570248024,-1009.641381135663,1478.1747473388318,-823.1007864299269,1464.243421488145,-657.8482868139777C1450.3120956374582,-492.59578719802846,1357.6454532276825,-245.50775543398638,1356.4120448958788,-88.48500230430449C1355.178636564075,68.5377508253774,1449.5996815967694,150.0491600018077,1456.842971497322,284.28823196411366C1464.0862613978745,418.5273039264196,1411.8516231229034,561.171434955475,1399.8717842991946,716.9494294695312C1387.8919454754857,872.7274239835874,1362.805154248824,1042.7663613250643,1384.9639385550693,1218.9561990484513C1407.1227228613145,1395.1460367718382,1523.651813229178,1617.2478223179282,1532.8244901366666,1774.088455809853C1541.997167044155,1930.9290893017778,1455.470748356111,2095.6814093016424,1440,2160L 1920 2160 L 1920 -1080 Z" fill="url(&quot;#SvgjsLinearGradient1540&quot;)"></path><path d="M1600,-1080C1606.3698587340555,-985.6230761013203,1625.5571296645155,-690.3671503971403,1638.2191524043333,-513.7384566079215C1650.881175144151,-337.10976281870273,1695.0065786127398,-208.9119615877399,1675.9721364389063,-20.227837264687196C1656.9376942650729,168.45628705836552,1546.7353501116945,422.62714315162066,1524.012499361333,618.3662893303946C1501.2896486109717,814.1054355091685,1525.5142411983325,985.7812421711122,1539.6350319367382,1154.2070398079563C1553.755822675144,1322.6328374448005,1598.6764157812238,1461.288915119452,1608.7372437917675,1628.9210751514593C1618.7980718023111,1796.5532351834665,1601.456207298628,2071.4868458585765,1600,2160L 1920 2160 L 1920 -1080 Z" fill="url(&quot;#SvgjsLinearGradient1541&quot;)"></path><path d="M1760,-1080C1778.780756952448,-1017.02997879734,1881.9664805439038,-872.2487735857612,1872.6845417146883,-702.1798727840405C1863.4026028854728,-532.1109719823198,1716.8772038006964,-235.3743986134672,1704.308367024707,-59.58659518967602C1691.7395302487175,116.20120823411517,1784.7878579081168,212.2863394618051,1797.2715210587512,352.5469477587066C1809.7551842093856,492.8075560556081,1765.3988851578013,627.9498189335542,1779.2103459285127,781.9770545917329C1793.021806699224,936.0042902499116,1870.9429896471045,1118.904697560935,1880.1402856830198,1276.7103617077787C1889.337581718935,1434.5160258546225,1854.417503091174,1581.5960997574257,1834.394122144004,1728.811039472796C1814.3707411968342,1876.0259791881663,1772.399020357334,2088.135173245466,1760,2160L 1920 2160 L 1920 -1080 Z" fill="url(&quot;#SvgjsLinearGradient1542&quot;)"></path></g><defs><linearGradient x1="0.1" y1="0" x2="0" y2="1" id="SvgjsLinearGradient1531"><stop stop-color="#3c1f3d" offset="0"></stop><stop stop-color="#371f3d" offset="0"></stop></linearGradient><linearGradient x1="0.1" y1="0" x2="0" y2="1" id="SvgjsLinearGradient1532"><stop stop-color="#371d38" offset="0"></stop><stop stop-color="#321d38" offset="0.08333333333333333"></stop></linearGradient><linearGradient x1="0.1" y1="0" x2="0" y2="1" id="SvgjsLinearGradient1533"><stop stop-color="#331a33" offset="0"></stop><stop stop-color="#2f1a33" offset="0.16666666666666666"></stop></linearGradient><linearGradient x1="0.1" y1="0" x2="0" y2="1" id="SvgjsLinearGradient1534"><stop stop-color="#2e182f" offset="0"></stop><stop stop-color="#2a182f" offset="0.25"></stop></linearGradient><linearGradient x1="0.1" y1="0" x2="0" y2="1" id="SvgjsLinearGradient1535"><stop stop-color="#29152a" offset="0"></stop><stop stop-color="#25152a" offset="0.3333333333333333"></stop></linearGradient><linearGradient x1="0.1" y1="0" x2="0" y2="1" id="SvgjsLinearGradient1536"><stop stop-color="#251325" offset="0"></stop><stop stop-color="#221325" offset="0.4166666666666667"></stop></linearGradient><linearGradient x1="0.1" y1="0" x2="0" y2="1" id="SvgjsLinearGradient1537"><stop stop-color="#201020" offset="0"></stop><stop stop-color="#1d1020" offset="0.5"></stop></linearGradient><linearGradient x1="0.1" y1="0" x2="0" y2="1" id="SvgjsLinearGradient1538"><stop stop-color="#1b0e1c" offset="0"></stop><stop stop-color="#190e1c" offset="0.5833333333333334"></stop></linearGradient><linearGradient x1="0.1" y1="0" x2="0" y2="1" id="SvgjsLinearGradient1539"><stop stop-color="#170c17" offset="0"></stop><stop stop-color="#150c17" offset="0.6666666666666666"></stop></linearGradient><linearGradient x1="0.1" y1="0" x2="0" y2="1" id="SvgjsLinearGradient1540"><stop stop-color="#120912" offset="0"></stop><stop stop-color="#100912" offset="0.75"></stop></linearGradient><linearGradient x1="0.1" y1="0" x2="0" y2="1" id="SvgjsLinearGradient1541"><stop stop-color="#0d070d" offset="0"></stop><stop stop-color="#0c070d" offset="0.8333333333333334"></stop></linearGradient><linearGradient x1="0.1" y1="0" x2="0" y2="1" id="SvgjsLinearGradient1542"><stop stop-color="#080409" offset="0"></stop><stop stop-color="#070409" offset="0.9166666666666666"></stop></linearGradient></defs></svg>