<svg xmlns="http://www.w3.org/2000/svg" version="1.1" xmlns:xlink="http://www.w3.org/1999/xlink" xmlns:svgjs="http://svgjs.dev/svgjs" viewBox="0 0 1920 1080"><rect width="1920" height="1080" fill="#390f38"></rect><g transform="matrix(0.9959292143521045,0.5749999999999998,-0.5749999999999998,0.9959292143521045,314.3213454559225,-537.568255051589)"><path d="M0,-1080C8.630446801631498,-1015.2835155307097,56.61460548042495,-820.9731856081977,51.782680809788985,-691.7010931842583C46.95075613915302,-562.4290007603189,-24.496270767099976,-439.89833857859713,-28.991548023815774,-304.36744545636384C-33.48682528053157,-168.83655233413054,16.463848559379,-11.79067728178616,24.8110172694942,121.48426554914145C33.1581859796094,254.75920838006908,32.31847239651958,344.86387998241406,21.09146423687544,495.28221152920185C9.864456077231296,645.7005430759896,-42.406114668619345,889.6468987912217,-42.55103168837066,1023.9942548298682C-42.69594870812197,1158.3416108685146,2.1987969970984054,1181.7800159129504,20.22196211836757,1301.3663477610803C38.24512723963674,1420.9526796092102,68.95828605897226,1598.4066372121606,65.58795903924434,1741.5122459186473C62.21763201951641,1884.617854625134,10.931326506540723,2090.252040986441,0,2160L 1920 2160 L 1920 -1080 Z" fill="url(&quot;#SvgjsLinearGradient1221&quot;)"></path><path d="M274.2857142857143,-1080C262.0703412199424,-990.9237838611111,198.7705244010058,-698.2034957246638,200.99347589108316,-545.5427031666666C203.21642738116054,-392.8819106086694,262.1452439940065,-315.964450805364,287.62342322617855,-164.03524465201673C313.1016024583506,-12.106038498669449,352.96737697153105,204.68788870770962,353.8625512841155,366.032533753417C354.75772559669997,527.3771787991244,310.905167599859,650.733492730477,292.9944691016851,804.0326256222276C275.08377060351125,957.3317585139781,250.47257528254454,1128.8673135308243,246.39836029507222,1285.8273311039206C242.3241453075999,1442.787348677017,263.9012868450775,1600.0972862447927,268.54917917685117,1745.7927310608059C273.19707150862484,1891.488175876819,273.32962510090374,2090.965455176801,274.2857142857143,2160L 1920 2160 L 1920 -1080 Z" fill="url(&quot;#SvgjsLinearGradient1222&quot;)"></path><path d="M548.5714285714286,-1080C535.3717222786473,-1002.4800514577277,464.65314494221167,-751.5122491734504,469.3731908147413,-614.8803087463657C474.0932366872709,-478.248368319281,551.0243529138083,-377.2741652113611,576.8917038066063,-260.2083574374917C602.7590546994043,-143.14254966362233,642.391781254448,-43.81459680647774,624.577296171529,87.51453789685041C606.7628110886101,218.84367260017856,495.09019607979263,392.19263880888934,470.00479330909246,527.7664507824772C444.9193905383923,663.3402627560652,473.5408609674717,752.9962377384489,474.06487954732796,900.9574097383776C474.5888981271842,1048.918581738306,461.339374819017,1275.9642866929412,473.14890478822997,1415.5334827820488C484.95843475744294,1555.1026788711565,532.3516387320726,1614.294833403365,544.9220593626058,1738.3725862730234C557.4924799931389,1862.450339142682,547.963200369958,2089.7287643788372,548.5714285714286,2160L 1920 2160 L 1920 -1080 Z" fill="url(&quot;#SvgjsLinearGradient1223&quot;)"></path><path d="M822.8571428571428,-1080C835.8104663773338,-992.6504308096514,891.7984305779466,-730.159048454009,900.5770839782886,-555.9025848579088C909.3557373786305,-381.6461212618085,880.5168931617973,-211.41591269429125,875.5290632591945,-34.46121842339848C870.5412333565916,142.49347584749432,889.8585961138926,333.30874626223147,870.6501045626716,505.82558076744795C851.4416130114505,678.3424152726644,776.3271932791894,818.1014282656425,760.2781139518681,1000.6397886079001C744.2290346245469,1183.1781489501577,763.925790447865,1407.82904092231,774.355628598744,1601.0557428209934C784.7854667496231,1794.2824447196767,814.7735571474096,2066.842623803499,822.8571428571428,2160L 1920 2160 L 1920 -1080 Z" fill="url(&quot;#SvgjsLinearGradient1224&quot;)"></path><path d="M1097.142857142857,-1080C1089.2299358320997,-980.5114217224358,1038.0547114624476,-665.6294553576291,1049.6653292783124,-483.06853033461493C1061.2759470941771,-300.50760531160074,1165.3404817334779,-164.4973811264321,1166.8065640380457,15.365550138084927C1168.2726463426136,195.22848140260194,1083.3056229493195,419.17720349665626,1058.461823105719,596.1090572524872C1033.6180232621186,773.0409110083182,1007.2637500990152,919.7503822896022,1017.7437649764431,1076.9566726730707C1028.223779853871,1234.1629630565392,1108.1087303425513,1358.8395783321437,1121.341912370287,1539.3467995532985C1134.5750943980227,1719.8540207744534,1101.1760330140955,2056.5577999255497,1097.142857142857,2160L 1920 2160 L 1920 -1080 Z" fill="url(&quot;#SvgjsLinearGradient1225&quot;)"></path><path d="M1371.4285714285716,-1080C1374.014702431829,-1009.4970084837854,1375.0165583960493,-785.4106469221442,1386.9453574481156,-656.9820509027123C1398.874156500182,-528.5534548832804,1442.323175319434,-432.58123729736934,1443.00136574097,-309.4284238834085C1443.6795561625058,-186.2756104694477,1398.8858180998222,-61.58442232350464,1391.014499977331,81.93482958105253C1383.14318185484,225.4540814856097,1409.9990524030145,413.27649135575575,1395.7734570060222,551.6870875439345C1381.54786160903,690.0976837321132,1304.8052591610954,766.8644871510867,1305.6609275953776,912.3984067101247C1306.51659602966,1057.9323262691628,1383.6885688583548,1272.8677285821484,1400.9074676117164,1424.890604898163C1418.126366365078,1576.9134812141776,1413.8874694794051,1702.01743208924,1408.9743201155477,1824.5356646062128C1404.0611707516903,1947.0538971231856,1377.6861962097341,2104.089277434369,1371.4285714285716,2160L 1920 2160 L 1920 -1080 Z" fill="url(&quot;#SvgjsLinearGradient1226&quot;)"></path><path d="M1645.7142857142856,-1080C1637.9904259585169,-967.607571322975,1596.3458970533352,-619.2733818529238,1599.3711271796737,-405.6454279378499C1602.3963573060123,-192.01747402277599,1668.3845647644334,-16.543571817002288,1663.8656664723173,201.7677234904433C1659.3467681802013,420.0790187978889,1574.3022508957417,689.6060439345575,1572.2577374269765,904.2223439068238C1570.2132239582113,1118.83864387909,1639.3558276118408,1280.1692473085113,1651.5985856597256,1489.4655233240408C1663.8413437076103,1698.7617993395702,1646.695002371859,2048.24425388734,1645.7142857142856,2160L 1920 2160 L 1920 -1080 Z" fill="url(&quot;#SvgjsLinearGradient1227&quot;)"></path></g><defs><linearGradient x1="0.1" y1="0" x2="0" y2="1" id="SvgjsLinearGradient1221"><stop stop-color="#390f38" offset="0"></stop><stop stop-color="#330f39" offset="0"></stop></linearGradient><linearGradient x1="0.1" y1="0" x2="0" y2="1" id="SvgjsLinearGradient1222"><stop stop-color="#320d31" offset="0"></stop><stop stop-color="#2d0d32" offset="0.14285714285714285"></stop></linearGradient><linearGradient x1="0.1" y1="0" x2="0" y2="1" id="SvgjsLinearGradient1223"><stop stop-color="#2a0b2a" offset="0"></stop><stop stop-color="#250b2a" offset="0.2857142857142857"></stop></linearGradient><linearGradient x1="0.1" y1="0" x2="0" y2="1" id="SvgjsLinearGradient1224"><stop stop-color="#230923" offset="0"></stop><stop stop-color="#1f0923" offset="0.42857142857142855"></stop></linearGradient><linearGradient x1="0.1" y1="0" x2="0" y2="1" id="SvgjsLinearGradient1225"><stop stop-color="#1c071b" offset="0"></stop><stop stop-color="#19071c" offset="0.5714285714285714"></stop></linearGradient><linearGradient x1="0.1" y1="0" x2="0" y2="1" id="SvgjsLinearGradient1226"><stop stop-color="#150514" offset="0"></stop><stop stop-color="#130515" offset="0.7142857142857143"></stop></linearGradient><linearGradient x1="0.1" y1="0" x2="0" y2="1" id="SvgjsLinearGradient1227"><stop stop-color="#0d030d" offset="0"></stop><stop stop-color="#0b030d" offset="0.8571428571428571"></stop></linearGradient></defs></svg>